<?xml version="1.0" encoding="UTF-8"?>
<svg xmlns="http://www.w3.org/2000/svg" viewBox="0 0 345.39 346.11">
  <defs>
    <style>
      .cls-1 {
        fill: #38a836;
      }

      .cls-1, .cls-2, .cls-3 {
        stroke-width: 0px;
      }

      .cls-2 {
        fill: #fff;
      }

      .cls-3 {
        fill: #238135;
      }
    </style>
  </defs>
  <g id="Capa_2" data-name="Capa 2">
    <path class="cls-3" d="M44.53,191.65s14.88,56.1,42.79,80.27,77.39,30.3,77.39,30.3v-51.54l-120.18-59.02"/>
    <path class="cls-3" d="M303.82,191.71s-14.89,56.04-42.81,80.21c-27.91,24.17-77.26,30.3-77.26,30.3l.18-58.53,119.89-51.97"/>
  </g>
  <g id="Capa_1" data-name="Capa 1">
    <path class="cls-2" d="M282.21,53.79c-4.19,3.56-8.26,6.76-12.04,10.27-9.15,8.48-18.18,17.11-27.25,25.68-4.02,3.8-8.03,7.61-12.04,11.42-9.46,9.02-18.96,17.99-28.36,27.08-4.26,4.12-8.39,8.39-12.45,12.71-3.68,3.92-5.91,8.81-6.13,14.03-.41,9.76-.05,19.55,0,29.33,0,.86.14,1.71.24,2.89,1.53-.9,2.89-1.39,3.83-2.3,7.31-7.11,14.43-14.41,21.81-21.44,6.76-6.43,13.86-12.5,20.66-18.9,6-5.64,11.76-11.52,17.67-17.25,4.55-4.41,12.17-3.79,16.93,1.66,3.54,4.06,4.16,10.87-.78,15.25-5.7,5.06-11.35,10.18-16.93,15.38-8.89,8.29-17.79,16.58-26.53,25.03-9.63,9.3-19.37,18.52-28.48,28.31-3.23,3.47-5.2,8.34-6.97,12.88-2.77,7.09-1.05,14.69-1.6,22.04-.23,3.02,1.06,3.59,3.74,3.08,14.6-2.74,27.77-9.04,40.39-16.51,11.62-6.87,23.72-12.54,36.42-17.13,8.6-3.1,17.07-6.73,25.22-10.87,6.24-3.17,11.45-8.3,14.23-14.71,4.95-11.41,7.17-23.7,8.58-35.99.85-7.44.37-15.08,0-22.61-.31-6.27-1.06-12.55-2.11-18.74-2.23-13.14-7-25.52-12.75-37.45-3.07-6.36-7.31-12.17-11.15-18.15-1.16-1.8-2.76-3.32-4.17-4.99Z"/>
    <path class="cls-2" d="M189.66,346.02c0-.2,0-.4,0-.61.81,0,1.66.14,2.44-.02,8.95-1.81,17.92-3.55,26.83-5.52,11.3-2.5,21.98-6.89,32.09-12.32,8.48-4.55,16.34-10.28,24.39-15.62,12.44-8.26,22.68-19.02,32.16-30.31,7.19-8.57,13.46-18.08,19.01-27.81,7.91-13.86,13.73-28.72,17-44.42.99-4.76,2.86-9.56,1-14.61-1.28-3.47-8.07-8.44-10.91-7.39-4.19,1.54-8.06,3.62-9.21,8.58-.86,3.69-1.87,7.34-2.82,11.01-3.28,12.64-8.33,24.56-14.77,35.88-8.1,14.25-17.87,27.24-30.09,38.25-5.4,4.86-10.73,9.88-16.65,14.05-10.58,7.44-21.95,13.42-34.1,18.15-16.56,6.46-33.67,9.6-51.24,10.41-6.46.3-13.06-.45-19.47-1.52-9.26-1.54-18.56-3.26-27.55-5.91-11.16-3.28-21.75-8.01-31.68-14.34-9.02-5.75-17.77-11.76-25.55-19.06-3.86-3.62-7.43-7.56-10.88-11.58-4.71-5.5-9.77-10.83-13.61-16.91-5.65-8.94-10.7-18.31-15.32-27.83-2.78-5.73-4.32-12.08-6.28-18.19-1.57-4.9-2.77-9.92-4.47-14.76-1.05-3-6.76-6.62-9.4-6.19-4.64.75-8.16,3.65-9.83,8.07-1.65,4.39-.14,8.36.91,12.35,2.05,7.79,3.91,15.73,6.95,23.15,3.9,9.53,8.5,18.84,13.52,27.85,6.28,11.3,14.31,21.46,23.03,30.97,8.11,8.84,17.39,16.39,27.06,23.52,15.78,11.64,32.94,20.36,51.76,25.71,7.38,2.1,14.94,3.7,22.51,4.93,6.84,1.11,13.8,1.66,20.73,1.97,7.47.33,14.97.07,22.46.07Z"/>
    <path class="cls-2" d="M161.55,115.13c.41-4.87,1-8.77,1.03-12.67.13-17.69.31-35.38.06-53.07-.23-16.31,1.29-32.69-1.27-49.38-31.24,3.52-58.71,14.77-82.18,36.84,3.4,3.08,6.5,5.78,9.49,8.6,6.72,6.36,13.37,12.8,20.08,19.18,3.93,3.74,7.95,7.4,11.88,11.14,9.63,9.16,19.26,18.34,28.86,27.54,3.89,3.73,7.7,7.55,12.06,11.82Z"/>
    <path class="cls-2" d="M265.65,36.75c-1.74-1.88-2.85-3.63-4.42-4.68-8.31-5.58-16.61-11.19-25.17-16.39-8.72-5.29-18.28-8.84-28.14-11.29-6.65-1.65-13.7-1.79-20.25-3.68-4.33-1.25-3.76.66-3.75,3.28.02,35.17.01,70.34.02,105.51v4.64c2.66-2.14,4.79-3.67,6.71-5.42,4.69-4.28,9.31-8.64,13.91-13.02,5.1-4.86,10.15-9.78,15.23-14.67,6.5-6.27,13.03-12.52,19.49-18.83,2.82-2.76,5.44-5.73,8.29-8.46,5.91-5.65,11.91-11.2,18.1-17Z"/>
    <path class="cls-1" d="M163.82,186.88c-.8-.5-1.86-.93-2.63-1.67-5.28-5.02-10.43-10.19-15.76-15.16-5.4-5.02-11.02-9.8-16.44-14.79-2.3-2.12-4.27-4.61-6.54-6.76-7.98-7.54-15.92-15.14-24.1-22.47-4.3-3.86-11.06-2.53-15.69,2.59-3.33,3.69-3.13,10.7.55,14.31,5.35,5.27,10.76,10.48,16.2,15.66,7.78,7.4,15.6,14.76,23.42,22.12,8.74,8.24,17.24,16.75,26.32,24.6,6.36,5.5,12,11.62,13.67,19.7,1.68,8.15,1.33,16.72,1.91,25.66-2.1-.29-3.19-.41-4.28-.59-16.16-2.65-30.23-10.24-44.06-18.49-12.61-7.52-26.09-13.09-40.09-17.54-8.99-2.86-17.62-6.72-24.71-13.15-4.71-4.28-8.01-9.75-9.45-15.91-2.21-9.49-4.4-19.04-5.55-28.69-1.06-8.87-1.56-17.98-.83-26.86,1.23-15.05,4.68-29.69,10.82-43.66,4.44-10.09,9.6-19.69,16.33-28.43.98-1.28,2.04-2.5,3.26-3.98,3.57,3.36,7.06,6.68,10.59,9.95,10.24,9.49,20.54,18.93,30.74,28.48,3.47,3.25,6.65,6.82,10.1,10.1,7.68,7.29,15.48,14.45,23.18,21.73,6.03,5.71,12.19,11.31,17.86,17.36,3.38,3.61,5.86,7.92,5.66,13.38-.11,3.19,1.16,6.42,1.05,9.61-.26,7.56-.96,15.11-1.51,22.91Z"/>
    <path class="cls-1" d="M282.21,53.79c1.41,1.67,3.01,3.19,4.17,4.99,3.84,5.98,8.09,11.78,11.15,18.15,5.75,11.92,10.52,24.31,12.75,37.45,1.05,6.19,1.8,12.47,2.11,18.74.37,7.53.86,15.17,0,22.61-1.41,12.28-3.62,24.58-8.58,35.99-2.78,6.41-7.99,11.54-14.23,14.71-8.15,4.14-16.62,7.77-25.22,10.87-12.7,4.58-24.8,10.26-36.42,17.13-12.63,7.47-25.79,13.77-40.39,16.51-2.68.5-3.96-.06-3.74-3.08.55-7.36-1.17-14.95,1.6-22.04,1.77-4.53,3.74-9.41,6.97-12.88,9.12-9.79,18.85-19.01,28.48-28.31,8.75-8.45,17.64-16.74,26.53-25.03,5.58-5.2,11.22-10.32,16.93-15.38,4.94-4.38,4.31-11.19.78-15.25-4.76-5.46-12.39-6.07-16.93-1.66-5.91,5.73-11.68,11.61-17.67,17.25-6.8,6.39-13.9,12.46-20.66,18.9-7.39,7.03-14.51,14.33-21.81,21.44-.94.92-2.3,1.4-3.83,2.3-.1-1.18-.23-2.03-.24-2.89-.06-9.78-.41-19.57,0-29.33.22-5.21,2.44-10.11,6.13-14.03,4.06-4.32,8.19-8.59,12.45-12.71,9.4-9.08,18.9-18.06,28.36-27.08,4-3.81,8.02-7.62,12.04-11.42,9.07-8.57,18.1-17.2,27.25-25.68,3.78-3.51,7.84-6.71,12.04-10.27Z"/>
    <path class="cls-1" d="M189.66,346.02c-7.49,0-14.99.25-22.46-.07-6.93-.3-13.89-.86-20.73-1.97-7.57-1.23-15.13-2.83-22.51-4.93-18.82-5.35-35.99-14.08-51.76-25.71-9.67-7.14-18.96-14.68-27.06-23.52-8.72-9.51-16.75-19.68-23.03-30.97-5.01-9.01-9.61-18.32-13.52-27.85-3.04-7.42-4.9-15.36-6.95-23.15-1.05-3.98-2.56-7.95-.91-12.35,1.66-4.42,5.19-7.32,9.83-8.07,2.64-.43,8.35,3.19,9.4,6.19,1.7,4.85,2.9,9.87,4.47,14.76,1.96,6.11,3.5,12.46,6.28,18.19,4.62,9.52,9.68,18.89,15.32,27.83,3.84,6.08,8.9,11.41,13.61,16.91,3.44,4.02,7.02,7.96,10.88,11.58,7.79,7.31,16.53,13.31,25.55,19.06,9.94,6.33,20.52,11.07,31.68,14.34,8.99,2.64,18.29,4.36,27.55,5.91,6.4,1.07,13.01,1.81,19.47,1.52,17.57-.81,34.68-3.96,51.24-10.41,12.15-4.74,23.53-10.71,34.1-18.15,5.92-4.16,11.26-9.19,16.65-14.05,12.22-11.01,21.99-24.01,30.09-38.25,6.44-11.32,11.49-23.25,14.77-35.88.95-3.67,1.96-7.32,2.82-11.01,1.15-4.96,5.02-7.05,9.21-8.58,2.84-1.04,9.63,3.92,10.91,7.39,1.87,5.05,0,9.85-1,14.61-3.28,15.7-9.1,30.56-17,44.42-5.55,9.73-11.82,19.24-19.01,27.81-9.48,11.29-19.72,22.05-32.16,30.31-8.05,5.34-15.91,11.07-24.39,15.62-10.11,5.43-20.79,9.83-32.09,12.32-8.92,1.97-17.88,3.72-26.83,5.52-.78.16-1.62.02-2.44.02,0,.2,0,.4,0,.61Z"/>
    <path class="cls-1" d="M161.55,115.13c-4.36-4.28-8.17-8.09-12.06-11.82-9.6-9.2-19.22-18.37-28.86-27.54-3.93-3.74-7.95-7.4-11.88-11.14-6.71-6.38-13.36-12.82-20.08-19.18-2.98-2.82-6.08-5.52-9.49-8.6C102.66,14.77,130.13,3.52,161.36,0c2.56,16.69,1.05,33.07,1.27,49.38.25,17.69.07,35.38-.06,53.07-.03,3.9-.61,7.8-1.03,12.67Z"/>
    <path class="cls-1" d="M265.65,36.75c-6.19,5.8-12.19,11.35-18.1,17-2.85,2.73-5.47,5.7-8.29,8.46-6.46,6.31-12.99,12.56-19.49,18.83-5.07,4.89-10.12,9.81-15.23,14.67-4.6,4.38-9.22,8.74-13.91,13.02-1.92,1.75-4.05,3.28-6.71,5.42v-4.64c0-35.17,0-70.34-.02-105.51,0-2.62-.58-4.54,3.75-3.28,6.56,1.9,13.6,2.03,20.25,3.68,9.86,2.44,19.42,5.99,28.14,11.29,8.55,5.19,16.85,10.81,25.17,16.39,1.57,1.05,2.68,2.8,4.42,4.68Z"/>
  </g>
</svg>